<svg xmlns="http://www.w3.org/2000/svg" viewBox="0 0 64 64" width="64" height="64">
  <circle cx="32" cy="32" r="26" fill="none" stroke="#FF0000" stroke-width="2" stroke-dasharray="4 2"/>
  <path d="M32 6v52M6 32h52" stroke="#FF0000" stroke-width="1.5" opacity="0.4"/>
  <path d="M32 6c-14.36 0-26 11.64-26 26s11.64 26 26 26 26-11.64 26-26-11.64-26-26-26zM32 6c-7 0-13 11.64-13 26s6 26 13 26 13-11.64 13-26-6-26-13-26z" fill="none" stroke="#FF0000" stroke-width="2.5"/>
  <circle cx="32" cy="6" r="3" fill="#FF0000"/>
  <circle cx="32" cy="58" r="3" fill="#FF0000"/>
  <circle cx="6" cy="32" r="3" fill="#FF0000"/>
  <circle cx="58" cy="32" r="3" fill="#FF0000"/>
  <circle cx="32" cy="32" r="4" fill="#FF0000"/>
</svg>
